<svg xmlns="http://www.w3.org/2000/svg" viewBox="0 0 1440 320">
  <defs>
    <linearGradient id="0" x1="0.5" y1="0" x2="0.5" y2="1">
      <stop offset="5%" stop-color="rgba(255, 255, 255, 0)"/>
      <stop offset="25%" stop-color="rgba(255, 255, 255, 0.5)"/>
      <stop offset="33%" stop-color="#f6d860"/>
      <stop offset="38%" stop-color="#f3bf59"/>
      <stop offset="48%" stop-color="#ed894b"/>
      <stop offset="53%" stop-color="#e47346"/>
      <stop offset="63%" stop-color="#d53a42"/>
      <stop offset="67.33%" stop-color="#c93a51"/>
      <stop offset="76%" stop-color="#b1385e"/>
      <stop offset="84%" stop-color="#893b70"/>
      <stop offset="100%" stop-color="#3c366b"/>
    </linearGradient>
  </defs>
  <path fill="url(#0)" fill-opacity="0.5" d="M0,160L7.1,144C14.1,128,28,96,42,90.7C56.5,85,71,107,85,112C98.8,117,113,107,127,133.3C141.2,160,155,224,169,234.7C183.5,245,198,203,212,186.7C225.9,171,240,181,254,154.7C268.2,128,282,64,296,42.7C310.6,21,325,43,339,96C352.9,149,367,235,381,261.3C395.3,288,409,256,424,208C437.6,160,452,96,466,96C480,96,494,160,508,202.7C522.4,245,536,267,551,245.3C564.7,224,579,160,593,122.7C607.1,85,621,75,635,85.3C649.4,96,664,128,678,128C691.8,128,706,96,720,101.3C734.1,107,748,149,762,181.3C776.5,213,791,235,805,229.3C818.8,224,833,192,847,197.3C861.2,203,875,245,889,256C903.5,267,918,245,932,234.7C945.9,224,960,224,974,197.3C988.2,171,1002,117,1016,112C1030.6,107,1045,149,1059,160C1072.9,171,1087,149,1101,128C1115.3,107,1129,85,1144,74.7C1157.6,64,1172,64,1186,85.3C1200,107,1214,149,1228,160C1242.4,171,1256,149,1271,160C1284.7,171,1299,213,1313,202.7C1327.1,192,1341,128,1355,117.3C1369.4,107,1384,149,1398,170.7C1411.8,192,1426,192,1433,192L1440,192L1440,320L1432.9,320C1425.9,320,1412,320,1398,320C1383.5,320,1369,320,1355,320C1341.2,320,1327,320,1313,320C1298.8,320,1285,320,1271,320C1256.5,320,1242,320,1228,320C1214.1,320,1200,320,1186,320C1171.8,320,1158,320,1144,320C1129.4,320,1115,320,1101,320C1087.1,320,1073,320,1059,320C1044.7,320,1031,320,1016,320C1002.4,320,988,320,974,320C960,320,946,320,932,320C917.6,320,904,320,889,320C875.3,320,861,320,847,320C832.9,320,819,320,805,320C790.6,320,776,320,762,320C748.2,320,734,320,720,320C705.9,320,692,320,678,320C663.5,320,649,320,635,320C621.2,320,607,320,593,320C578.8,320,565,320,551,320C536.5,320,522,320,508,320C494.1,320,480,320,466,320C451.8,320,438,320,424,320C409.4,320,395,320,381,320C367.1,320,353,320,339,320C324.7,320,311,320,296,320C282.4,320,268,320,254,320C240,320,226,320,212,320C197.6,320,184,320,169,320C155.3,320,141,320,127,320C112.9,320,99,320,85,320C70.6,320,56,320,42,320C28.2,320,14,320,7,320L0,320Z"></path>
</svg>